<?xml version="1.0" encoding="UTF-8" standalone="no"?>
<!-- Created with Inkscape (http://www.inkscape.org/) -->

<svg
   xmlns:dc="http://purl.org/dc/elements/1.1/"
   xmlns:cc="http://creativecommons.org/ns#"
   xmlns:rdf="http://www.w3.org/1999/02/22-rdf-syntax-ns#"
   xmlns:svg="http://www.w3.org/2000/svg"
   xmlns="http://www.w3.org/2000/svg"
   xmlns:sodipodi="http://sodipodi.sourceforge.net/DTD/sodipodi-0.dtd"
   xmlns:inkscape="http://www.inkscape.org/namespaces/inkscape"
   version="1.1"
   id="svg2"
   width="40"
   height="40"
   viewBox="0 0 40 40"
   sodipodi:docname="logo.svg"
   inkscape:version="0.92.4 (unknown)">
  <metadata
     id="metadata8">
    <rdf:RDF>
      <cc:Work
         rdf:about="">
        <dc:format>image/svg+xml</dc:format>
        <dc:type
           rdf:resource="http://purl.org/dc/dcmitype/StillImage" />
        <dc:title></dc:title>
      </cc:Work>
    </rdf:RDF>
  </metadata>
  <defs
     id="defs6" />
  <sodipodi:namedview
     pagecolor="#ffffff"
     bordercolor="#666666"
     borderopacity="1"
     objecttolerance="10"
     gridtolerance="10"
     guidetolerance="10"
     inkscape:pageopacity="0"
     inkscape:pageshadow="2"
     inkscape:window-width="2560"
     inkscape:window-height="1355"
     id="namedview4"
     showgrid="false"
     inkscape:zoom="16.68772"
     inkscape:cx="22.510569"
     inkscape:cy="15.684114"
     inkscape:window-x="0"
     inkscape:window-y="0"
     inkscape:window-maximized="1"
     inkscape:current-layer="svg2" />
  <g
     id="g833"
     transform="translate(0.07020571,-0.07020572)">
    <path
       style="fill:#fcf4eb;stroke-width:0.31999999"
       d="m 7.36,18.439182 c 0,-0.06645 0.252,-0.31845 0.56,-0.56 C 8.4275379,17.481144 8.4388563,17.492462 8.0408176,18 7.6227795,18.533039 7.36,18.702553 7.36,18.439182 Z M 21.866667,8.8140765 c 0,-0.2562583 0.122349,-0.3903079 0.271886,-0.2978887 0.149538,0.092419 0.189039,0.3020848 0.08778,0.4659236 -0.25876,0.4186822 -0.359667,0.3715385 -0.359667,-0.1680349 z"
       id="path837"
       inkscape:connector-curvature="0" />
    <path
       style="fill:#00c185;stroke-width:0.31999999"
       d="m 17.26134,39.88457 c -0.09826,-0.103706 -0.746263,-0.272551 -1.44,-0.37521 C 15.127603,39.406698 14.272,39.243853 13.92,39.147475 12.893376,38.866394 8.1703114,36.430317 8.0533334,36.121549 7.9946666,35.966698 7.8204371,35.84 7.6661565,35.84 6.4150298,35.84 2.1217075,29.664679 0.92608106,26.145379 0.04056027,23.538868 -0.25147501,17.648111 0.39932605,15.52 1.8567009,10.754403 6.2214854,4.16 7.918423,4.16 8.1099571,4.16 8.3146666,4.0361629 8.3733334,3.8848067 8.8911011,2.5489976 15.42791,0.27602283 19.220069,0.11318701 36.46992,-0.6275239 47.110726,21.42141 34.110694,30.968214 32.239917,32.342051 31.300454,32.932576 30.96,32.948659 30.828,32.954896 30.72,29.432 30.72,25.12 c 0,-7.310909 0.198636,-9.042519 0.84428,-7.36 0.101306,0.264 0.36938,0.48 0.59572,0.48 0.226339,0 0.494413,0.216 0.595722,0.48 0.101305,0.264 0.40471,0.48 0.674236,0.48 0.530695,0 0.676464,-0.51936 0.194602,-0.693333 -0.162493,-0.05867 -0.918493,-0.683803 -1.68,-1.389192 C 31.183052,16.412087 30.056,15.424193 29.44,14.922157 28.824,14.420121 27.672,13.407295 26.88,12.671434 26.088,11.935573 24.546155,10.59481 23.453677,9.6919603 22.3612,8.789111 21.146047,7.7510723 20.753338,7.385208 19.886892,6.577991 19.804446,6.5726749 19.121671,7.28 18.111729,8.326256 17.124308,9.207121 14.56,11.349405 10.488037,14.751219 9.2848557,15.898189 9.5305501,16.143884 9.6567475,16.270081 9.5963536,16.325333 9.3963414,16.266667 9.0138598,16.154479 6.08,18.532596 6.08,18.954814 c 0,0.536871 0.7414778,0.189492 1.8613613,-0.872038 C 8.5896125,17.468302 9.228,16.964302 9.36,16.962776 9.492,16.96124 9.6,19.759584 9.6,23.181297 v 6.221297 l 1.86704,1.436654 c 2.049838,1.577315 5.444061,3.412739 6.45146,3.488624 0.352825,0.02658 0.6415,0.148166 0.6415,0.270198 0,0.285066 2.851239,0.705344 5.12,0.754695 4.572012,0.09945 10.010122,-2.262749 13.150422,-5.712262 1.346343,-1.478914 1.122544,-0.582194 -0.395936,1.586446 -2.527628,3.609864 -6.371,6.502945 -10.50183,7.905205 -1.725063,0.58559 -8.289668,1.155209 -8.671316,0.752416 z"
       id="path835"
       inkscape:connector-curvature="0" />
  </g>
</svg>
